<?xml version="1.0" encoding="UTF-8"?>
<svg width="100" height="100" viewBox="0 0 100 100" xmlns="http://www.w3.org/2000/svg">
  <style>
    .primary { fill: #2E7D32; }
    .secondary { fill: #795548; }
    .accent { fill: #FF8F00; }
  </style>
  <!-- Heart -->
  <path class="accent" d="M50 80 C80 60 90 40 90 30 C90 15 75 10 65 15 C55 20 50 30 50 30 C50 30 45 20 35 15 C25 10 10 15 10 30 C10 40 20 60 50 80"/>
  <!-- Hands -->
  <path class="primary" d="M30 60 C20 55 15 50 25 45 C35 40 45 45 50 50 C55 45 65 40 75 45 C85 50 80 55 70 60"/>
</svg>
